<?xml version="1.0" encoding="UTF-8"?>
<svg width="147px" height="36px" viewBox="0 0 147 36" version="1.1" xmlns="http://www.w3.org/2000/svg" xmlns:xlink="http://www.w3.org/1999/xlink">
    <title>编组 7</title>
    <g id="页面-1" stroke="none" stroke-width="1" fill="none" fill-rule="evenodd">
        <g id="画板备份-2" transform="translate(-563.000000, -18.000000)">
            <g id="编组-7" transform="translate(563.264804, 18.394563)">
                <g id="编组-2" transform="translate(40.954166, 0.810861)" fill="#ffffff" fill-rule="nonzero">
                    <path d="M8.28339321,18.5468007 C9.85668726,18.5468007 11.2097202,18.1669072 12.3424919,17.4071202 C13.4752636,16.6473332 14.2540441,15.6756056 14.6788335,14.4919374 L14.6788335,14.4919374 L11.8233048,12.8124083 C11.4614472,13.6121841 10.9776593,14.2360092 10.3719411,14.6838836 C9.76622285,15.1317581 9.04644082,15.3556953 8.21259497,15.3556953 C7.3315503,15.3556953 6.54490327,15.1157626 5.85265389,14.6358971 C5.1604045,14.1560316 4.61368482,13.4682244 4.21249484,12.5724755 C3.81130485,11.6767266 3.61070986,10.6370181 3.61070986,9.45334992 C3.61070986,8.26968174 3.81130485,7.23397208 4.21249484,6.34622095 C4.61368482,5.45846982 5.1604045,4.77466151 5.85265389,4.29479603 C6.54490327,3.81493055 7.3315503,3.57499781 8.21259497,3.57499781 C9.04644082,3.57499781 9.76622285,3.79893504 10.3719411,4.24680948 C10.9776593,4.69468393 11.4614472,5.31850905 11.8233048,6.11828485 L11.8233048,6.11828485 L14.6788335,4.43875567 C14.2540441,3.25508749 13.4752636,2.2833599 12.3424919,1.52357289 C11.2097202,0.763785886 9.85668726,0.383892383 8.28339321,0.383892383 C6.75729797,0.383892383 5.3609995,0.759787007 4.09449778,1.51157626 C2.82799607,2.26336551 1.82895434,3.32706732 1.0973726,4.70268169 C0.365790868,6.07829606 -4.26746355e-13,7.66185214 -4.26746355e-13,9.45334992 C-4.26746355e-13,11.2448477 0.369724103,12.8324027 1.10917231,14.2160148 C1.84862052,15.5996269 2.84766224,16.6673276 4.10629749,17.4191169 C5.36493273,18.1709061 6.75729797,18.5468007 8.28339321,18.5468007 Z M19.8943033,18.2588814 L19.8943033,-5.42335689e-15 L16.6139852,-5.42335689e-15 L16.6139852,18.2588814 L19.8943033,18.2588814 Z M28.5080883,18.5468007 C29.6093941,18.5468007 30.6359685,18.2828747 31.5878114,17.7550227 C32.5396543,17.2271707 33.3027019,16.4673837 33.8769543,15.4756617 C34.4512066,14.4839397 34.7383328,13.3402603 34.7383328,12.0446235 C34.7383328,10.7489867 34.4512066,9.60530732 33.8769543,8.61358533 C33.3027019,7.62186335 32.5396543,6.85807746 31.5878114,6.32222768 C30.6359685,5.78637789 29.6093941,5.518453 28.5080883,5.518453 C27.3910495,5.518453 26.3526754,5.78637789 25.3929661,6.32222768 C24.4332567,6.85807746 23.6662758,7.62186335 23.0920235,8.61358533 C22.5177712,9.60530732 22.230645,10.7489867 22.230645,12.0446235 C22.230645,13.3402603 22.5177712,14.4839397 23.0920235,15.4756617 C23.6662758,16.4673837 24.4332567,17.2271707 25.3929661,17.7550227 C26.3526754,18.2828747 27.3910495,18.5468007 28.5080883,18.5468007 Z M28.4844889,15.6436146 C27.666376,15.6436146 26.9859263,15.3197054 26.4431398,14.671887 C25.9003534,14.0240686 25.6289602,13.1483141 25.6289602,12.0446235 C25.6289602,10.9409329 25.9003534,10.0611795 26.4431398,9.40536337 C26.9859263,8.74954722 27.666376,8.42163914 28.4844889,8.42163914 C29.3026018,8.42163914 29.9791182,8.74954722 30.5140382,9.40536337 C31.0489582,10.0611795 31.3164182,10.9409329 31.3164182,12.0446235 C31.3164182,13.1483141 31.0489582,14.0240686 30.5140382,14.671887 C29.9791182,15.3197054 29.3026018,15.6436146 28.4844889,15.6436146 Z M41.3461678,18.5468007 C42.1957466,18.5468007 42.9509277,18.3628523 43.6117112,17.9949554 C44.2724947,17.6270586 44.8074147,17.0672155 45.2164712,16.3154263 C45.2794029,16.6513321 45.3423347,17.2991505 45.4052665,18.2588814 L45.4052665,18.2588814 L48.307994,18.2588814 L48.307994,5.83036556 L45.0276759,5.83036556 L45.0276759,12.0446235 C45.0276759,13.1643096 44.7838153,14.0360652 44.2960942,14.6598904 C43.808373,15.2837155 43.1711889,15.595628 42.3845419,15.595628 C40.9371113,15.595628 40.2133961,14.4519487 40.2133961,12.1645899 L40.2133961,12.1645899 L40.2133961,5.83036556 L36.933078,5.83036556 L36.933078,13.2682805 C36.933078,14.9957962 37.3264015,16.3074285 38.1130485,17.2031774 C38.8996955,18.0989263 39.977402,18.5468007 41.3461678,18.5468007 Z M56.1901972,18.5468007 C56.9925772,18.5468007 57.7359586,18.3668512 58.4203415,18.0069521 C59.1047245,17.647053 59.6593106,17.1072043 60.0841,16.3874061 C60.1312988,16.7073164 60.1942306,17.3311415 60.2728953,18.2588814 L60.2728953,18.2588814 L63.1520234,18.2588814 L63.1520234,-5.42335689e-15 L59.8717053,-5.42335689e-15 L59.8717053,7.36593509 C59.431183,6.74210997 58.8923298,6.27824001 58.2551457,5.9743252 C57.6179616,5.6704104 56.9296454,5.518453 56.1901972,5.518453 C55.183289,5.518453 54.262912,5.77438125 53.4290661,6.28623776 C52.5952203,6.79809428 51.9265703,7.54588465 51.4231162,8.52960888 C50.9196621,9.51333311 50.6679351,10.6850046 50.6679351,12.0446235 C50.6679351,13.3882468 50.9196621,14.5519206 51.4231162,15.5356449 C51.9265703,16.5193691 52.5952203,17.2671595 53.4290661,17.779016 C54.262912,18.2908725 55.183289,18.5468007 56.1901972,18.5468007 Z M56.9453784,15.6916011 C56.0800666,15.6916011 55.383884,15.3636931 54.8568305,14.7078769 C54.329777,14.0520608 54.0662502,13.1643096 54.0662502,12.0446235 C54.0662502,10.9249374 54.329777,10.0531818 54.8568305,9.42935665 C55.383884,8.80553153 56.0800666,8.49361896 56.9453784,8.49361896 C57.7634913,8.49361896 58.4557407,8.78553713 59.0221265,9.36937346 C59.5885124,9.95320979 59.8717053,10.8449598 59.8717053,12.0446235 C59.8717053,13.2602827 59.5885124,14.1720271 59.0221265,14.7798567 C58.4557407,15.3876863 57.7634913,15.6916011 56.9453784,15.6916011 Z" id="Cloud"></path>
                    <path d="M9.36008047,32.5946678 L9.36008047,31.8657173 L5.99147338,31.8657173 L5.99147338,31.1834944 L7.75465615,31.1834944 L7.75465615,30.5293081 L5.99147338,30.5293081 L5.99147338,29.7069024 L5.15628153,29.7069024 L5.15628153,30.5293081 L3.37453894,30.5293081 C3.85090762,30.1367963 4.21901069,29.7473996 4.47884815,29.3611182 L4.47884815,29.3611182 L6.65962685,29.3611182 C7.0060768,29.8408548 7.40356625,30.2489425 7.8520952,30.5853812 C8.30062415,30.9218199 8.85587206,31.2426827 9.51783893,31.5479697 L9.51783893,31.5479697 L9.88903531,30.8096737 C9.36317378,30.5978419 8.92547139,30.3813374 8.57592813,30.1601601 C8.22638488,29.9389828 7.90932131,29.6726355 7.62473742,29.3611182 L7.62473742,29.3611182 L9.74983667,29.3611182 L9.74983667,28.6695498 L8.14441235,28.6695498 L8.14441235,25.7724388 L9.43431975,25.7724388 L9.43431975,25.0995615 L8.14441235,25.0995615 L8.14441235,24.4360296 L7.3092205,24.4360296 L7.3092205,25.0995615 L3.8385344,25.0995615 L3.8385344,24.4360296 L2.99406265,24.4360296 L2.99406265,25.0995615 L1.70415525,25.0995615 L1.70415525,25.7724388 L2.99406265,25.7724388 L2.99406265,28.6695498 L1.40719815,28.6695498 L1.40719815,29.3611182 L3.51373758,29.3611182 C2.98168944,29.9467707 2.22692348,30.4483136 1.24943969,30.8657468 L1.24943969,30.8657468 L1.62063607,31.6227338 C2.28260293,31.2925255 2.86105062,30.9311654 3.35597912,30.5386536 L3.35597912,30.5386536 L3.35597912,31.1834944 L5.15628153,31.1834944 L5.15628153,31.8657173 L1.76911462,31.8657173 L1.76911462,32.5946678 L9.36008047,32.5946678 Z M7.3092205,26.3238245 L3.8385344,26.3238245 L3.8385344,25.7724388 L7.3092205,25.7724388 L7.3092205,26.3238245 Z M7.3092205,27.5013599 L3.8385344,27.5013599 L3.8385344,26.9593198 L7.3092205,26.9593198 L7.3092205,27.5013599 Z M7.3092205,28.6695498 L3.8385344,28.6695498 L3.8385344,28.1275097 L7.3092205,28.1275097 L7.3092205,28.6695498 Z M24.1862823,32.8469968 L24.1862823,29.0994436 L23.39749,29.0994436 L23.39749,31.6320793 L22.3488602,31.6320793 L22.3488602,28.5200215 L24.0470836,28.5200215 L24.0470836,25.1369435 L23.295411,25.1369435 L23.295411,27.6976158 L22.3488602,27.6976158 L22.3488602,24.2865013 L21.5229483,24.2865013 L21.5229483,27.6976158 L20.6042372,27.6976158 L20.6042372,25.1369435 L19.8432847,25.1369435 L19.8432847,28.5200215 L21.5229483,28.5200215 L21.5229483,31.6320793 L20.5021582,31.6320793 L20.5021582,29.1181347 L19.7226459,29.1181347 L19.7226459,32.454485 L23.39749,32.454485 L23.39749,32.8469968 L24.1862823,32.8469968 Z M19.1194518,32.2675746 L19.1194518,27.5948151 L17.6903457,27.5948151 C17.8945037,27.071466 18.0770086,26.4826983 18.2378604,25.828512 L18.2378604,25.828512 L19.4535285,25.828512 L19.4535285,25.0247973 L16.2333999,25.0247973 L16.2333999,25.828512 L17.4119484,25.828512 C17.2820297,26.4017038 17.0886983,26.9935867 16.8319541,27.6041606 C16.5752099,28.2147345 16.2859861,28.7754657 15.9642826,29.286354 L15.9642826,29.286354 L16.2797995,30.1181052 C16.4839575,29.8564307 16.6602758,29.6009865 16.8087543,29.3517727 L16.8087543,29.3517727 L16.8087543,32.2675746 L19.1194518,32.2675746 Z M18.3863389,31.4732055 L17.560427,31.4732055 L17.560427,28.4265663 L18.3863389,28.4265663 L18.3863389,31.4732055 Z M32.9991028,26.5574624 L33.6115768,25.8939306 C33.3517393,25.6260257 33.0671555,25.3472177 32.7578251,25.0575066 C32.4484948,24.7677955 32.194844,24.5450607 31.9968726,24.389302 L31.9968726,24.389302 L31.4215182,24.9967607 C31.6380494,25.1774408 31.9040735,25.4235395 32.2195904,25.7350568 C32.5351073,26.0465741 32.7949448,26.3207093 32.9991028,26.5574624 L32.9991028,26.5574624 Z M34.205491,27.9312538 C34.7375391,27.6010454 35.1102822,27.2817402 35.3237201,26.973338 C35.537158,26.6649359 35.643877,26.3394003 35.643877,25.9967313 L35.643877,25.9967313 L35.643877,25.4546912 L37.2214615,25.4546912 L37.2214615,26.7537183 C37.2214615,27.071466 37.2987941,27.2895281 37.4534593,27.4079047 C37.6081244,27.5262813 37.858682,27.5854695 38.2051319,27.5854695 L38.2051319,27.5854695 L39.2166421,27.5854695 L39.328001,26.7724094 L38.4092899,26.7724094 C38.297931,26.7724094 38.2159585,26.7490456 38.1633723,26.702318 C38.1107862,26.6555904 38.0844931,26.566808 38.0844931,26.4359707 L38.0844931,26.4359707 L38.0844931,24.6790131 L34.7994052,24.6790131 L34.7994052,25.6229105 C34.7994052,25.8845851 34.7700188,26.0979744 34.7112461,26.2630786 C34.6524733,26.4281828 34.5395677,26.5870566 34.3725294,26.7397001 C34.205491,26.8923435 33.9549334,27.071466 33.6208567,27.2770674 L33.6208567,27.2770674 L34.205491,27.9312538 Z M32.3495091,32.6787775 L32.4979877,32.5385947 L32.7949448,32.2582291 C33.4816581,31.6912676 33.9796799,31.2738344 34.2890102,31.0059296 L34.2890102,31.0059296 L33.9085339,30.258288 L32.9155836,31.0993847 L32.9155836,27.2583764 L30.9111232,27.2583764 L30.9111232,28.062091 L32.0711118,28.062091 L32.0711118,31.4171324 C32.0711118,31.5542 32.0540987,31.6585583 32.0200723,31.7302073 C31.986046,31.8018563 31.9133534,31.8937539 31.8019945,32.0059001 L31.8019945,32.0059001 L32.3495091,32.6787775 Z M33.8435745,32.9030699 C34.8952976,32.5043278 35.776889,32.0619732 36.4883487,31.5760062 C37.1565022,32.0557429 38.0009739,32.4949823 39.021764,32.8937244 L39.021764,32.8937244 L39.4022402,32.0526277 C38.4618761,31.7535711 37.7102034,31.4233627 37.1472223,31.0620027 C37.8153757,30.4701198 38.3164908,29.7660907 38.6505676,28.9499153 L38.6505676,28.9499153 L38.6505676,28.1555462 L33.9549334,28.1555462 L33.9549334,28.9405698 L34.4282088,28.9405698 C34.756099,29.7629755 35.2170011,30.4576591 35.8109153,31.0246206 C35.1922547,31.4233627 34.3972758,31.7909532 33.4259786,32.1273918 L33.4259786,32.1273918 L33.8435745,32.9030699 Z M36.460509,30.5479991 C35.9903269,30.1367963 35.603664,29.6009865 35.3005203,28.9405698 L35.3005203,28.9405698 L37.7225766,28.9405698 C37.4689258,29.5324527 37.0482366,30.0682625 36.460509,30.5479991 Z M49.3472097,27.5200509 C49.6750998,27.0839267 49.9658703,26.6322266 50.2195212,26.1649506 L50.2195212,26.1649506 L54.024284,26.1649506 L54.024284,25.361236 L50.6185573,25.361236 C50.7608492,25.0621794 50.890768,24.7475469 51.0083135,24.4173386 L51.0083135,24.4173386 L50.2195212,24.2491192 C50.0586694,24.7163952 49.8514181,25.1883439 49.5977673,25.6649654 C49.3441164,26.1415868 49.0533459,26.5948445 48.7254558,27.0247384 L48.7254558,27.0247384 L49.3472097,27.5200509 Z M46.3126793,32.8843789 C46.5292106,32.3547995 46.6947023,31.8906387 46.8091545,31.4918965 C46.9236067,31.0931544 47.0086725,30.6554726 47.064352,30.1788511 C47.1200315,29.7022296 47.1509645,29.1119043 47.1571511,28.4078752 L47.1571511,28.4078752 L47.9273836,28.4078752 L47.9273836,28.8751512 C47.9273836,29.7785514 47.8871706,30.6258784 47.8067448,31.4171324 C47.7881849,31.6102731 47.7510653,31.7411104 47.6953858,31.8096442 C47.6397064,31.878178 47.5469073,31.9124449 47.4169886,31.9124449 C47.2808832,31.9124449 47.1262181,31.8906387 46.9529931,31.8470263 L46.9529931,31.8470263 L47.1014716,32.6320499 C47.2499502,32.6507409 47.3922421,32.6600864 47.5283475,32.6600864 C47.8624242,32.6600864 48.1052485,32.5962254 48.2568204,32.4685033 C48.4083922,32.3407812 48.4996447,32.1180463 48.5305777,31.8002987 C48.5738839,31.3953262 48.6094569,30.7411398 48.6372966,29.8377397 C48.6651364,28.9343395 48.6759629,28.2209649 48.6697763,27.6976158 L48.6697763,27.6976158 L47.1571511,27.6976158 L47.1571511,26.5387714 L48.8553745,26.5387714 L48.8553745,25.7350568 L47.9181037,25.7350568 C47.8067448,25.2615505 47.7417854,24.9936456 47.7232256,24.9313421 L47.7232256,24.9313421 L47.5840269,24.3425744 L46.7673949,24.4453751 L46.8230744,24.6509765 C46.8478208,24.7693531 46.8880337,24.9422452 46.9437132,25.1696529 C46.9993926,25.3970605 47.0426989,25.5855285 47.0736319,25.7350568 L47.0736319,25.7350568 L45.7651647,25.7350568 L45.7651647,26.5387714 L46.4054784,26.5387714 L46.4054784,28.0153634 C46.4054784,28.7567746 46.380732,29.3751365 46.3312392,29.870449 C46.2817463,30.3657615 46.2013204,30.8143464 46.0899615,31.2162037 C45.9786026,31.6180611 45.8177508,32.058858 45.6074062,32.5385947 L45.6074062,32.5385947 L46.3126793,32.8843789 Z M51.7414263,32.8283058 C52.1497423,32.8283058 52.5116588,32.8127299 52.8271757,32.7815782 C53.1241328,32.7566568 53.3576772,32.706814 53.5278089,32.6320499 C53.6979405,32.5572857 53.8263126,32.4404667 53.9129251,32.2815929 C53.9995376,32.1227191 54.0552171,31.9030994 54.0799635,31.6227338 L54.0799635,31.6227338 L54.0985233,31.4077869 L54.1449228,30.9405109 L53.3839703,30.7536005 C53.3839703,30.8782075 53.3746904,31.0401965 53.3561306,31.2395675 C53.3437573,31.4264779 53.314371,31.5682183 53.2679714,31.6647887 C53.2215719,31.761359 53.1442393,31.833008 53.0359737,31.8797356 C52.9277081,31.9264632 52.7653097,31.9622877 52.5487784,31.9872091 C52.2270749,32.0183608 51.9517709,32.0339367 51.7228665,32.0339367 C51.5001487,32.0339367 51.2248447,32.0183608 50.8969546,31.9872091 C50.7113564,31.968518 50.575251,31.9373663 50.4886386,31.8937539 C50.4020261,31.8501414 50.3417067,31.7738197 50.3076803,31.6647887 C50.273654,31.5557576 50.2566408,31.3859807 50.2566408,31.1554579 L50.2566408,31.1554579 L50.2566408,28.9312243 L51.1103925,28.6882408 L51.1103925,31.3517138 L51.8527852,31.3517138 L51.8527852,28.4826394 L52.9385346,28.1742373 C52.9385346,28.7038167 52.9137882,29.1524016 52.8642954,29.519992 C52.8395489,29.700672 52.799336,29.825279 52.7436565,29.8938128 C52.6879771,29.9623466 52.595178,29.9966135 52.4652593,29.9966135 C52.3044075,29.9966135 52.1713955,29.9810376 52.0662231,29.9498859 L52.0662231,29.9498859 L52.2147017,30.6975274 C52.4126731,30.7162185 52.6106445,30.725564 52.8086159,30.725564 C53.0808266,30.725564 53.2726114,30.6632605 53.3839703,30.5386536 C53.4953292,30.4140467 53.5695685,30.1897542 53.6066881,29.8657762 C53.6376211,29.6227927 53.6670075,29.2006868 53.6948472,28.5994584 C53.722687,27.99823 53.7397001,27.5075902 53.7458867,27.1275391 L53.7458867,27.1275391 L51.8527852,27.6789247 L51.8527852,26.4826983 L51.1103925,26.4826983 L51.1103925,27.8938717 L50.2566408,28.1462007 L50.2566408,27.4265957 L49.5049682,27.4265957 L49.5049682,28.3611476 L48.8368147,28.5574035 L49.0038531,29.286354 L49.5049682,29.1461712 L49.5049682,31.4077869 C49.5049682,31.8937539 49.594674,32.2348653 49.7740855,32.4311212 C49.9534971,32.6273771 50.2442676,32.7441961 50.646397,32.7815782 C50.9619139,32.8127299 51.3269237,32.8283058 51.7414263,32.8283058 Z M61.0739218,32.454485 C61.4451181,32.2800353 61.6430895,32.1865801 61.667836,32.1741194 C62.1132716,31.9622877 62.7814251,31.6663462 63.6722964,31.2862951 L63.6722964,31.2862951 L64.1270119,32.3236478 L64.8879645,31.9778635 C64.7147395,31.5853517 64.5013016,31.1305365 64.2476508,30.6134177 C63.9939999,30.096299 63.7867486,29.6975569 63.6258968,29.4171913 L63.6258968,29.4171913 L62.9206237,29.7255934 C62.994863,29.862661 63.127875,30.1336811 63.3196598,30.5386536 L63.3196598,30.5386536 L62.0947118,31.0900392 L61.7235154,31.2489131 L61.7235154,29.1368257 L64.4425289,29.1368257 L64.4425289,24.6790131 L60.944003,24.6790131 L60.944003,31.1741489 C60.944003,31.2862951 60.9223499,31.3828655 60.8790437,31.46386 C60.8357374,31.5448545 60.7522182,31.6320793 60.6284861,31.7255345 L60.6284861,31.7255345 L61.0739218,32.454485 Z M66.1221925,32.8469968 L66.1221925,25.6602926 L67.597698,25.6602926 L67.597698,30.0713776 C67.597698,30.2832094 67.5683117,30.4389681 67.5095389,30.5386536 C67.4507662,30.6383391 67.3440472,30.6881819 67.189382,30.6881819 C66.9481044,30.6881819 66.6975468,30.6632605 66.4377094,30.6134177 L66.4377094,30.6134177 L66.5954678,31.4918965 C66.8614919,31.5230483 67.1739155,31.5386241 67.5327387,31.5386241 C67.8482556,31.5386241 68.07716,31.4482841 68.219452,31.2676041 C68.3617439,31.0869241 68.4328899,30.7909826 68.4328899,30.3797798 L68.4328899,30.3797798 L68.4328899,24.7818138 L65.2962805,24.7818138 L65.2962805,32.8469968 L66.1221925,32.8469968 Z M63.6444567,26.5013893 L61.7235154,26.5013893 L61.7235154,25.4546912 L63.6444567,25.4546912 L63.6444567,26.5013893 Z M63.6444567,28.3611476 L61.7235154,28.3611476 L61.7235154,27.2583764 L63.6444567,27.2583764 L63.6444567,28.3611476 Z M77.3013899,32.8656879 L77.3013899,26.7724094 C77.6230934,26.1119927 77.9169572,25.3955029 78.1829813,24.62294 L78.1829813,24.62294 L77.3385095,24.3519199 C77.0848587,25.1556346 76.7569685,25.9546765 76.3548391,26.7490456 C75.9527097,27.5434147 75.5413004,28.1929283 75.1206112,28.6975863 L75.1206112,28.6975863 L75.5289272,29.6227927 C75.8444441,29.2240506 76.1506811,28.7879263 76.4476382,28.31442 L76.4476382,28.31442 L76.4476382,32.8656879 L77.3013899,32.8656879 Z M82.1083829,32.8189603 C82.3682204,32.8189603 82.5955782,32.733293 82.7904563,32.5619585 C82.9853344,32.390624 83.1384529,32.1024705 83.2498118,31.697498 C83.3735439,31.2862951 83.4725296,30.8470557 83.5467689,30.3797798 L83.5467689,30.3797798 L82.8043761,30.0339956 C82.7425101,30.3579736 82.6620842,30.7224488 82.5630985,31.1274213 C82.4950458,31.3953262 82.4269931,31.5744486 82.3589405,31.6647887 C82.2908878,31.7551287 82.2073686,31.8034139 82.1083829,31.8096442 C82.0032106,31.8096442 81.9042249,31.7784925 81.8114258,31.716189 C81.7186267,31.6538855 81.6103611,31.535509 81.486629,31.3610593 C81.2948442,31.0806937 81.1123393,30.653915 80.9391143,30.0807232 C80.7658894,29.5075313 80.6235974,28.8066174 80.5122385,27.9779814 L80.5122385,27.9779814 L83.5467689,27.6976158 L83.4818095,26.8471735 L80.4194394,27.1368846 C80.4008796,26.9188225 80.3792265,26.6073052 80.35448,26.2023327 C80.3359202,25.7848995 80.323547,25.523225 80.3173604,25.4173091 C80.292614,24.8316566 80.2802408,24.4765268 80.2802408,24.3519199 L80.2802408,24.3519199 L79.3893695,24.3519199 L79.4914485,26.1742962 C79.5038217,26.4484314 79.5285681,26.7942156 79.5656878,27.2116488 L79.5656878,27.2116488 L77.700426,27.3892136 L77.7746652,28.2303104 L79.6584868,28.0527455 C79.8750181,29.8533155 80.2400278,31.1305365 80.7535162,31.8844084 C80.9947938,32.220847 81.2221516,32.4607154 81.4355895,32.6040133 C81.6490274,32.7473113 81.8732919,32.8189603 82.1083829,32.8189603 Z M82.3403807,26.4640073 L82.8786154,25.828512 C82.7239502,25.6789836 82.4873126,25.4702671 82.1687023,25.2023622 C81.8500921,24.9344573 81.588708,24.7195103 81.38455,24.5575213 L81.38455,24.5575213 L80.8927148,25.1369435 C81.0906862,25.2989325 81.3396971,25.5169946 81.6397475,25.7911299 C81.9397979,26.0652651 82.1733423,26.2895576 82.3403807,26.4640073 L82.3403807,26.4640073 Z M96.7304267,32.8376513 C97.0335704,32.8376513 97.2686614,32.7940389 97.4356998,32.706814 C97.6027382,32.6195892 97.728017,32.4731761 97.8115361,32.2675746 C97.8950553,32.0619732 97.9615613,31.7660318 98.0110542,31.3797503 C98.1409729,30.3392825 98.2244921,29.3019299 98.2616117,28.2676924 L98.2616117,28.2676924 L97.1944222,28.2676924 L97.5284989,24.7911593 L93.7794155,24.7911593 L93.7794155,25.613565 L96.5912281,25.613565 L96.3313906,28.2676924 L94.7630859,28.2676924 L94.9858037,26.0714954 L94.1598918,26.0247679 L93.8443749,29.0994436 L97.3800204,29.0994436 C97.3490873,29.8657762 97.2810347,30.582266 97.1758624,31.2489131 C97.1263695,31.5542 97.0521302,31.761359 96.9531445,31.8703901 C96.8541588,31.9794211 96.6778405,32.0339367 96.4241897,32.0339367 C96.1272326,32.0339367 95.7684094,32.0121304 95.3477202,31.968518 L95.3477202,31.968518 L95.1250024,31.949827 L95.2734809,32.7722327 C95.7312898,32.8158451 96.2169384,32.8376513 96.7304267,32.8376513 Z M93.111262,32.3703753 L93.111262,27.6135061 L91.4594382,27.6135061 C91.6697828,27.090157 91.8584743,26.4795831 92.0255127,25.7817844 L92.0255127,25.7817844 L93.3525397,25.7817844 L93.3525397,24.9313421 L90.1138513,24.9313421 L90.1138513,25.7817844 L91.171761,25.7817844 C91.0418423,26.3798976 90.8546974,26.9826836 90.6103265,27.5901423 C90.3659555,28.1976011 90.1076647,28.7193925 89.835454,29.1555168 L89.835454,29.1555168 L90.1324111,30.1274508 C90.3427558,29.8034728 90.5407272,29.4826099 90.7263253,29.1648623 L90.7263253,29.1648623 L90.7263253,32.3703753 L93.111262,32.3703753 Z M92.3410296,31.5386241 L91.4965578,31.5386241 L91.4965578,28.4359118 L92.3410296,28.4359118 L92.3410296,31.5386241 Z M96.7861062,30.9031288 L96.7861062,30.0900687 L93.4917383,30.0900687 L93.4917383,30.9031288 L96.7861062,30.9031288 Z" id="基础设施即代码"></path>
                    <path d="M70.3130251,18.2588814 L70.3130251,0.695804943 L66.8911106,0.695804943 L66.8911106,18.2588814 L70.3130251,18.2588814 Z M77.6524419,18.5468007 C78.4705548,18.5468007 79.1667374,18.40684 79.7409898,18.1269184 C80.3152421,17.8469969 80.7832971,17.4191169 81.1451547,16.8432783 C81.1923535,17.0672155 81.2277527,17.3271426 81.2513521,17.6230597 C81.2749515,17.9189767 81.2946177,18.1309173 81.3103506,18.2588814 L81.3103506,18.2588814 L84.0714817,18.2588814 L84.0714817,11.0129127 C84.0714817,9.25340597 83.6073599,7.897786 82.6791164,6.9460528 C81.7508729,5.9943196 80.4607718,5.518453 78.808813,5.518453 C77.5816437,5.518453 76.5118037,5.78637789 75.5992932,6.32222768 C74.6867826,6.85807746 74.0102662,7.58987231 73.5697438,8.51761224 L73.5697438,8.51761224 L75.9060855,9.88522885 C76.4567384,8.79753377 77.3299166,8.25368623 78.5256201,8.25368623 C80.0202495,8.25368623 80.7911636,9.17342839 80.8383624,11.0129127 C79.9415848,10.7249934 79.0684066,10.5810338 78.2188278,10.5810338 C77.2748513,10.5810338 76.4095396,10.7489867 75.6228926,11.0848925 C74.8362456,11.4207984 74.2108612,11.896665 73.7467394,12.5124923 C73.2826177,13.1283197 73.0505568,13.8521168 73.0505568,14.6838836 C73.0505568,15.4836594 73.255085,16.1754655 73.6641415,16.7593018 C74.0731979,17.3431382 74.6277841,17.7870137 75.3278999,18.0909285 C76.0280158,18.3948433 76.8028631,18.5468007 77.6524419,18.5468007 Z M78.171629,16.0035137 C77.636709,16.0035137 77.2001199,15.8755496 76.8618617,15.6196213 C76.5236034,15.3636931 76.3544743,15.003794 76.3544743,14.539924 C76.3544743,14.0280675 76.566869,13.6321785 76.9916584,13.3522569 C77.4164478,13.0723354 78.0142995,12.9323746 78.7852136,12.9323746 C79.3673324,12.9323746 80.0517154,13.0283477 80.8383624,13.2202939 L80.8383624,13.2202939 L80.8383624,13.7001594 C80.8383624,14.4199576 80.5709024,14.9837996 80.0359824,15.3916852 C79.5010624,15.7995709 78.8796113,16.0035137 78.171629,16.0035137 Z M94.6912165,18.5468007 C96.2645106,18.5468007 97.6175435,18.1669072 98.7503152,17.4071202 C99.8830869,16.6473332 100.661867,15.6756056 101.086657,14.4919374 L101.086657,14.4919374 L98.2311282,12.8124083 C97.8692705,13.6121841 97.3854826,14.2360092 96.7797644,14.6838836 C96.1740462,15.1317581 95.4542642,15.3556953 94.6204183,15.3556953 C93.7393736,15.3556953 92.9527266,15.1157626 92.2604772,14.6358971 C91.5682278,14.1560316 91.0215082,13.4682244 90.6203182,12.5724755 C90.2191282,11.6767266 90.0185332,10.6370181 90.0185332,9.45334992 C90.0185332,8.26968174 90.2191282,7.23397208 90.6203182,6.34622095 C91.0215082,5.45846982 91.5682278,4.77466151 92.2604772,4.29479603 C92.9527266,3.81493055 93.7393736,3.57499781 94.6204183,3.57499781 C95.4542642,3.57499781 96.1740462,3.79893504 96.7797644,4.24680948 C97.3854826,4.69468393 97.8692705,5.31850905 98.2311282,6.11828485 L98.2311282,6.11828485 L101.086657,4.43875567 C100.661867,3.25508749 99.8830869,2.2833599 98.7503152,1.52357289 C97.6175435,0.763785886 96.2645106,0.383892383 94.6912165,0.383892383 C93.1651213,0.383892383 91.7688228,0.759787007 90.5023211,1.51157626 C89.2358194,2.26336551 88.2367777,3.32706732 87.5051959,4.70268169 C86.7736142,6.07829606 86.4078233,7.66185214 86.4078233,9.45334992 C86.4078233,11.2448477 86.7775474,12.8324027 87.5169956,14.2160148 C88.2564439,15.5996269 89.2554856,16.6673276 90.5141208,17.4191169 C91.7727561,18.1709061 93.1651213,18.5468007 94.6912165,18.5468007 Z" id="IaC"></path>
                </g>
                <g id="编组-6" transform="translate(0.000000, -0.000000)" fill="#00AB9D">
                    <path d="M15.9432256,8.35460638e-12 C18.5355782,8.35460638e-12 20.8094521,1.34032859 22.0867403,3.35443637 C23.0315799,2.85089839 24.1104157,2.56589499 25.2555949,2.56589499 C29.140207,2.93448019 30.8383657,5.62937288 31.7538039,8.42928358 C31.8557444,8.74107324 31.9479788,9.05416516 32.0324456,9.36549204 C33.4134863,15.5620806 28.3044401,15.0492626 27.3579122,14.0487621 C26.4777337,12.8177416 25.6794607,11.8769969 24.9562959,11.1664581 C24.7767764,10.9840822 24.5878527,10.8092208 24.391163,10.6433928 C23.7855681,10.1198286 23.2384655,9.76432084 22.7439984,9.5347429 L22.7350989,9.55640314 C21.6332439,9.00961251 20.3930789,8.70244472 19.0816747,8.70244472 C14.510835,8.70244472 10.8054372,12.4340399 10.8054372,17.0371959 C10.8054372,17.9612221 10.9547483,18.8501283 11.2303985,19.6807801 C10.0857556,20.5537643 8.71167581,21.0885731 7.23413657,21.0885731 C3.23883326,21.0885731 0,17.1781832 0,13.2509761 C0,9.32376896 3.23883326,6.14013857 7.23413657,6.14013857 C7.75647058,6.14013857 8.26587488,6.19455371 8.75680243,6.29793149 C9.16612281,2.75362047 12.227527,8.35460638e-12 15.9432256,8.35460638e-12 Z" id="形状结合"></path>
                    <path d="M18.4787442,16.2693365 C21.9487485,16.2693365 24.8481258,18.6708396 25.550556,21.8752445 C28.0574472,21.5731941 31.017333,22.1336023 31.7228456,24.7339748 C32.954238,29.8685287 28.3478303,31.4776548 25.3732388,28.7358675 L25.1393098,28.531461 C23.6283592,26.8976749 21.4735057,25.8758805 19.0816747,25.8758805 C14.510835,25.8758805 10.8054372,29.6074758 10.8054372,34.2106317 L10.8078532,34.3200056 C10.1436008,34.5572619 9.43896793,34.6877654 8.70908901,34.6877654 C4.7137857,34.6877654 1.47495244,30.7773754 1.47495244,26.8501683 C1.47495244,22.9229612 4.7137857,19.7393308 8.70908901,19.7393308 C9.84746821,19.7393308 10.9244336,19.997793 11.8825633,20.4582743 C13.0157432,17.9882399 15.5430273,16.2693365 18.4787442,16.2693365 Z" id="形状结合备份" transform="translate(16.701199, 25.478551) scale(1, -1) translate(-16.701199, -25.478551) "></path>
                </g>
            </g>
        </g>
    </g>
</svg>