<?xml version="1.0" standalone="no"?><!DOCTYPE svg PUBLIC "-//W3C//DTD SVG 1.1//EN" "http://www.w3.org/Graphics/SVG/1.1/DTD/svg11.dtd"><svg t="1640778102199" class="icon" viewBox="0 0 1058 1024" version="1.1" xmlns="http://www.w3.org/2000/svg" p-id="1806" xmlns:xlink="http://www.w3.org/1999/xlink" width="51.66015625" height="50"><defs><style type="text/css"></style></defs><path d="M512.408917 0c76.014832 0 142.677143 39.594614 180.12136 99.020668a195.720272 195.720272 0 0 1 92.910809-23.278902c113.868648 10.888519 163.669115 90.453213 190.497879 173.089902 3.003729 9.215988 5.700259 18.431975 8.191989 27.647963 40.447946 182.920289-109.328921 167.76511-137.079283 138.239816-26.555698-37.410083-50.585533-65.740712-72.260171-86.903351l-1.501864-1.570131a245.247673 245.247673 0 0 0-13.755715-12.492783c-17.510377-15.223446-33.382355-25.565833-47.718337-32.290091l-0.273066 0.682666a238.933015 238.933015 0 0 0-107.110257-25.258633c-134.007288 0-242.653543 110.182253-242.653543 246.066872 0 27.272497 4.369061 53.520995 12.45865 78.028696-33.518889 25.770632-73.830302 41.574345-117.145444 41.574345-117.145444 0-212.104251-115.438779-212.104251-231.389559 0-115.916645 94.958807-209.91972 212.104251-209.91972a215.039713 215.039713 0 0 1 44.612207 4.676261C313.684915 81.305492 403.455462 0 512.408917 0z" fill="#00AB9D" p-id="1807"></path><path d="M586.751218 1023.998635c101.717198 0 186.743218-70.928972 207.32559-165.546446 73.523102 8.977055 160.255786-7.57759 180.940559-84.309221 36.113019-151.585931-98.918268-199.099468-186.128819-118.169443l-6.929057 6.143992a240.434879 240.434879 0 0 1-177.52723 78.301762c-134.007288 0-242.653543-110.182253-242.653543-246.066871l0.068266-3.20853A181.247758 181.247758 0 0 0 300.372933 480.25536c-117.145444 0-212.104251 115.438779-212.104251 231.355425C88.234549 827.595697 183.193356 921.598771 300.372933 921.598771c33.348222 0 64.921513-7.645856 93.013209-21.230905A212.20665 212.20665 0 0 0 586.751218 1023.998635z" fill="#00AB9D" p-id="1808"></path></svg>